<?xml version="1.0" encoding="utf-8"?>
<!-- Generator: Adobe Illustrator 23.1.0, SVG Export Plug-In . SVG Version: 6.00 Build 0)  -->
<svg version="1.1" id="Capa_1" xmlns="http://www.w3.org/2000/svg" xmlns:xlink="http://www.w3.org/1999/xlink" x="0px" y="0px"
	 viewBox="0 0 512 512" style="enable-background:new 0 0 512 512;" xml:space="preserve">
<style type="text/css">
	.st0{fill:none;}
	.st1{font-family:'MyriadPro-Regular';}
	.st2{font-size:175px;}
</style>
<path d="M443.3,132.7l-128-128c-3-3-7.1-4.7-11.3-4.7H96C78.4,0,64,14.4,64,32v448c0,17.6,14.4,32,32,32h320c17.6,0,32-14.4,32-32
	V144C448,139.8,446.3,135.7,443.3,132.7z M320,54.6l73.4,73.4H320V54.6z M416,480H96V32h192v96c0,17.6,14.4,32,32,32h96L416,480
	L416,480z"/>
<rect x="142.4" y="232" class="st0" width="244" height="248"/>
<text transform="matrix(1 0 0 1 142.3756 356.2491)" class="st1 st2">CV</text>
</svg>
